<svg width="128" height="48" viewBox="0 0 128 48" fill="none" xmlns="http://www.w3.org/2000/svg">
<g id="Frame" clip-path="url(#clip0_6_1392)">
<path id="Vector" d="M0.0400038 22.3C2.59 29.13 5.48 36.04 11.71 40.32C17.28 44.14 24.24 45.37 30.88 44.84C38.11 44.26 45.02 41.25 50.89 37.07C53.91 34.92 56.7 32.48 59.29 29.83C60.57 28.51 61.81 27.14 63 25.74C64.19 24.34 65.4 22.92 66.04 21.18C66.58 19.69 66.51 17.95 65.61 16.62C64.66 15.21 62.93 14.77 61.31 14.88C57.65 15.13 54.09 17.58 51.52 20.07C46.54 24.88 43.03 33.04 46.44 39.7C49.85 46.36 58.12 48.31 65.12 47.67C72.12 47.03 79.83 44.34 86.41 41.15C98.9 35.1 109.83 25.82 117.54 14.25C118.5 12.82 119.39 11.35 120.23 9.85003C121.2 8.13003 117.02 8.58003 116.33 9.76003C110.22 20.26 101.77 29.2 91.46 35.67C86.37 38.86 80.89 41.46 75.16 43.25C68.98 45.19 61.91 46.79 55.86 43.61C53.14 42.18 50.88 39.85 49.92 36.89C48.96 33.93 49.27 30.45 50.41 27.44C51.55 24.43 53.46 21.87 55.84 19.84C56.86 18.97 57.99 18.18 59.2 17.59C59.76 17.32 60.27 17.05 60.86 17.35C61.56 17.7 61.93 18.48 62.1 19.21C62.79 22.23 59.7 25.01 57.88 27.04C55.69 29.48 53.34 31.78 50.81 33.87C46.17 37.7 40.73 40.88 34.77 42.08C28.52 43.34 21.73 42.4 16.25 39.1C9.69 35.16 6.73 28.06 4.14 21.22C3.6 19.8 -0.439996 20.99 0.0500038 22.32H0.0400038V22.3Z" fill="black"/>
<path id="Vector_2" d="M106.39 15.57L116.23 8.38002L120.97 4.92002C122.29 3.96002 123.69 2.60002 125.33 2.26002L123.09 2.03002C124.07 3.51002 123.79 5.58002 123.68 7.25002C123.55 9.14002 123.34 11.03 123.14 12.92C122.74 16.71 122.24 20.71 122.92 24.5C123.18 25.93 127.09 24.88 127.01 23.4C126.78 19.24 127.07 15.21 127.51 11.08C127.72 9.05002 127.94 7.02001 128 4.97002C128.05 3.30001 127.96 1.80002 127.02 0.370015C126.62 -0.229985 125.32 0.0300151 124.78 0.140015C122.75 0.560015 121.07 1.68002 119.42 2.89002C117.6 4.22002 115.78 5.55002 113.95 6.88002L103.02 14.87C102.27 15.42 102.65 16.17 103.42 16.36C104.45 16.61 105.58 16.16 106.4 15.56L106.39 15.57Z" fill="black"/>
</g>
<defs>
<clipPath id="clip0_6_1392">
<rect width="128.01" height="47.78" fill="white"/>
</clipPath>
</defs>
</svg>
