<svg width="88" height="27" viewBox="0 0 88 27" fill="none" xmlns="http://www.w3.org/2000/svg">
<g id="Frame" clip-path="url(#clip0_6_4910)">
<path id="Vector" d="M0.339999 1.79998C0.449999 5.41998 0.469999 9.04998 0.399999 12.67C0.369999 14.43 0.309999 16.18 0.239999 17.94C0.169999 19.7 -0.160001 21.55 0.0899986 23.26C0.299999 24.71 3.82 23.51 4.09 22.47C4.54 20.74 4.42 18.76 4.49 16.98C4.56 15.2 4.62 13.33 4.64 11.5C4.7 7.87998 4.67 4.26998 4.57 0.649981C4.54 -0.670019 0.289999 0.159981 0.339999 1.79998Z" fill="black"/>
<path id="Vector_2" d="M6.07998 14.03L9.66998 13.81C10.87 13.74 12.08 13.7 13.27 13.54C14.05 13.44 15.14 13.09 15.51 12.31C15.88 11.53 14.91 11.27 14.34 11.26C13 11.24 11.66 11.37 10.32 11.45L6.65998 11.67C6.13998 11.7 5.49998 11.94 5.05998 12.21C4.78998 12.38 4.30998 12.74 4.25998 13.1C4.12998 14.07 5.47998 14.04 6.08998 14.01L6.07998 14.03Z" fill="black"/>
<path id="Vector_3" d="M10.7301 3.88999L10.2201 13.93C10.0501 17.19 9.62011 20.59 9.85011 23.85C9.90011 24.6 11.4301 24.44 11.8301 24.36C12.4701 24.23 13.6901 23.84 13.8201 23.06C14.3601 19.85 14.2801 16.45 14.4501 13.2L14.9501 3.34999C15.0401 1.62999 10.8001 2.46999 10.7301 3.87999V3.88999Z" fill="black"/>
<path id="Vector_4" d="M22.8101 4.8L32.7701 3.74L37.6501 3.22C39.0701 3.07 40.5701 2.73 41.9801 3.09C42.8101 3.3 43.9301 2.98 44.6001 2.47C45.0401 2.13 45.5501 1.4 44.7701 1.06C43.1701 0.370004 41.4801 0.540004 39.8001 0.710004C37.9801 0.900004 36.1601 1.1 34.3301 1.29L23.4001 2.45C22.6401 2.53 21.1501 2.98 20.9901 3.89C20.8301 4.8 22.2401 4.86 22.8201 4.8H22.8101Z" fill="black"/>
<path id="Vector_5" d="M29.13 6.87001C28.73 9.80001 28.47 12.74 28.34 15.69C28.28 17.15 28.25 18.61 28.25 20.07C28.25 21.53 28.18 23.03 28.48 24.46C28.75 25.77 32.22 24.82 32.35 23.7C32.52 22.23 32.39 20.73 32.4 19.26C32.41 17.79 32.44 16.42 32.51 15C32.64 12.11 32.91 9.22001 33.28 6.35001C33.49 4.72001 29.33 5.46001 29.14 6.87001H29.13Z" fill="black"/>
<path id="Vector_6" d="M47.2499 6.26999C47.1099 9.56999 46.9999 12.87 46.9299 16.17C46.8899 17.82 46.8699 19.47 46.8499 21.12C46.8299 22.77 46.6699 24.4 46.9399 25.96C47.1799 27.35 50.7599 26.29 50.9499 25.17C51.2099 23.56 51.0699 21.84 51.0899 20.2C51.1099 18.56 51.1299 17.03 51.1699 15.44C51.2399 12.2 51.3499 8.96999 51.4799 5.72999C51.5499 3.99999 47.3099 4.84999 47.2499 6.25999V6.26999Z" fill="black"/>
<path id="Vector_7" d="M47.8501 6.67C50.4901 10.05 52.7501 13.67 54.6201 17.53C55.3401 19.03 58.3401 17.85 58.8501 16.7C60.7401 12.42 62.8601 8.26 65.1901 4.2L61.1201 4.72C62.8301 7.75 63.2601 11.39 63.8501 14.77C64.5001 18.5 64.8801 22.26 65.4801 25.99C65.7101 27.43 69.7201 26.39 69.6301 24.88C69.4001 21.12 68.7201 17.35 68.0801 13.64C67.4901 10.26 67.0601 6.62 65.3401 3.59C64.6301 2.34 61.8901 3.04 61.2701 4.11C58.8301 8.36 56.6201 12.74 54.6301 17.23L58.8601 16.4C56.9101 12.37 54.5501 8.55 51.8001 5.02C50.9101 3.88 46.8301 5.35 47.8701 6.68L47.8501 6.67Z" fill="black"/>
<path id="Vector_8" d="M72.94 6.27998C73.06 12.55 72.97 18.83 72.68 25.09C72.63 26.05 73.82 26.04 74.51 26L79.88 25.64C81.66 25.52 83.49 25.5 85.26 25.23C86 25.12 87.18 24.79 87.49 24C87.8 23.21 86.94 22.97 86.32 22.96C84.44 22.91 82.52 23.16 80.64 23.28L75.08 23.65L76.91 24.56C77.22 18.09 77.3 11.62 77.17 5.13998C77.14 3.81998 72.9 4.62998 72.94 6.26998V6.27998Z" fill="black"/>
</g>
<defs>
<clipPath id="clip0_6_4910">
<rect width="87.55" height="26.67" fill="white"/>
</clipPath>
</defs>
</svg>
