<svg width="93" height="67" viewBox="0 0 93 67" fill="none" xmlns="http://www.w3.org/2000/svg">
<g id="Frame" clip-path="url(#clip0_6_4557)">
<path id="Vector" d="M7.54615 65.4166C5.75769 62.8199 3.91432 60.0807 3.35738 56.9061C2.90242 54.2856 3.63193 51.6572 5.42823 49.6859C6.91862 48.0471 9.02869 46.915 11.2486 46.8675C13.7587 46.8121 16.1982 48.0709 18.0102 49.7493C20.2379 51.7997 21.7048 54.5389 22.2382 57.5315L25.5327 56.6369C22.6304 49.5355 21.0616 41.9354 20.9675 34.2481C20.8733 26.5609 22.0029 19.1587 24.9837 12.4452C26.3485 9.38142 28.2939 6.42845 31.0158 4.43342C33.4004 2.69172 36.3263 1.86837 39.2521 1.8842C45.8961 1.91587 51.6929 5.75552 55.2149 11.3052C57.223 14.4799 58.4624 18.1612 58.9566 21.89C59.1762 23.5446 59.2625 25.2151 58.9252 26.8617C58.6507 28.1839 58.1016 29.7989 56.7445 30.3135L59.0586 30.7885C59.639 27.2893 62.5413 25.3892 65.6241 24.2334C67.24 23.6238 68.9422 23.2359 70.6365 22.8954C72.7152 22.4838 74.8488 22.1512 76.9745 22.2542C86.3953 22.7054 89.5487 34.5252 89.6742 42.3629C89.7526 47.4455 88.5446 52.5914 86.2542 57.1198C85.556 58.4973 88.7564 58.1173 89.2506 57.1911C93.9414 48.443 94.3571 37.2803 89.886 28.3343C88.8506 26.268 87.5327 24.2809 85.6894 22.8638C83.7048 21.3437 81.3673 20.6154 78.912 20.4095C76.4568 20.2037 73.7898 20.5362 71.2954 21.0191C69.1461 21.4308 67.0203 21.9217 64.9495 22.6421C60.9411 24.0434 56.5092 26.6163 55.7483 31.216C55.5601 32.3323 57.5839 31.881 58.0623 31.691C64.9416 29.0547 62.4629 18.7312 60.2665 13.6723C57.3485 6.95888 51.6772 1.72587 44.4292 0.356257C37.1813 -1.01335 29.4548 1.46461 24.8268 7.4418C22.5284 10.4027 21.0459 13.9653 19.9948 17.5516C18.826 21.5337 18.12 25.6663 17.822 29.8068C17.1552 39.2357 18.6299 48.7992 22.2617 57.5157C22.7245 58.624 25.7838 57.8244 25.5563 56.6211C24.4267 50.533 19.3516 45.2921 13.0527 45.0071C7.21669 44.7696 0.27464 49.0288 0.00794002 55.4019C-0.172475 59.6611 2.27489 63.3345 4.58891 66.6754C5.20075 67.5542 8.2835 66.4933 7.54615 65.4166Z" fill="black"/>
</g>
<defs>
<clipPath id="clip0_6_4557">
<rect width="93" height="67" fill="white"/>
</clipPath>
</defs>
</svg>
