<svg width="54" height="24" viewBox="0 0 54 24" fill="none" xmlns="http://www.w3.org/2000/svg">
<g id="Frame" clip-path="url(#clip0_6_4906)">
<path id="Vector" d="M33.2 1.39C30.74 -0.160004 27.19 0.409996 24.95 2.09C22.95 3.59 22.05 6.41 23.25 8.7C23.9 9.92999 24.99 10.7 26.13 11.44C27.27 12.18 28.38 12.96 29.24 14.08C30.54 15.78 31.94 19.25 30.33 21.18C30.18 21.36 30.42 21.23 30.26 21.28C30.02 21.36 29.65 21.3 29.4 21.28C28.68 21.22 27.97 21.03 27.3 20.76C25.81 20.15 24.63 19.19 23.51 18.05C22.63 17.16 18.97 18.21 19.88 19.58C21.41 21.88 24.26 23.21 26.94 23.54C29.92 23.9 33.7 23.18 34.82 19.99C35.69 17.51 34.59 14.62 33.1 12.62C32.26 11.5 31.2 10.67 30.03 9.91C28.86 9.14999 27.58 8.43 27.08 7.1C26.62 5.89 26.71 4.34 27.57 3.31C28.27 2.48 29.13 2.8 29.98 3.33C31.1 4.03 34.84 2.39 33.2 1.37V1.39Z" fill="black"/>
<path id="Vector_2" d="M50.94 3.41002C49.67 0.870018 47.3 -0.219982 44.51 0.580018C41.72 1.38002 40.4 4.09002 41.3 6.84002C42.13 9.41002 44.28 11.06 46.25 12.75C47.85 14.12 50.29 16.33 49.21 18.71C49.14 18.86 49.01 18.99 48.95 19.15C48.99 19.04 49.45 19.14 48.92 19.12C48.29 19.1 47.68 19.03 47.05 18.9C45.51 18.59 44.08 17.98 42.72 17.22C41.63 16.61 37.88 18.08 39.52 19.17C42.31 21.01 46.2 22.08 49.51 21.26C51.22 20.84 52.87 19.83 53.48 18.1C53.97 16.7 53.61 15.23 52.87 14.01C51.19 11.23 47.94 9.89002 46.21 7.15002C45.46 5.96002 44.95 4.32002 45.49 2.95002C45.54 2.79002 45.62 2.64002 45.72 2.50002C46.01 2.19002 45.78 2.25002 45.03 2.70002C44.79 2.70002 44.76 2.70002 44.96 2.73002C45.13 2.80002 45.29 2.88002 45.44 2.97002C46 3.35002 46.41 3.96002 46.71 4.55002C47.43 6.00002 51.56 4.64002 50.94 3.42002V3.41002Z" fill="black"/>
<path id="Vector_3" d="M10.5301 6.74324e-06C7.2501 0.150007 4.1701 1.57001 2.1501 4.21001C0.250099 6.68001 -0.229901 9.95001 0.100099 12.98C0.410099 15.86 1.5401 18.67 4.0201 20.33C6.5001 21.99 9.6201 22.27 12.5201 22.46C13.3401 22.51 14.4601 22.17 14.9901 21.53C15.4201 21.01 15.2601 20.36 14.4901 20.28C12.3201 20.05 10.0301 19.84 8.0801 18.79C5.9901 17.67 4.9301 15.56 4.4501 13.32C3.9301 10.9 3.9901 8.23001 5.0001 5.93001C5.6501 4.45001 7.1401 2.42001 8.9401 2.33001C9.8301 2.29001 11.1601 2.07001 11.6501 1.21001C12.1101 0.420007 11.2601 -0.0299933 10.5301 6.74324e-06Z" fill="black"/>
</g>
<defs>
<clipPath id="clip0_6_4906">
<rect width="53.71" height="23.64" fill="white"/>
</clipPath>
</defs>
</svg>
