<svg width="41" height="48" viewBox="0 0 41 48" fill="none" xmlns="http://www.w3.org/2000/svg">
<g id="Frame" clip-path="url(#clip0_6_3974)">
<path id="Vector" d="M1.02769 37.4971L11.875 26.9795L22.776 16.4115L28.8149 10.5562C28.9876 10.3874 28.94 10.2128 28.7046 10.1506C28.4573 10.0855 28.076 10.1891 27.8913 10.3667L17.1184 20.8104L6.22046 31.3813L0.104127 37.3077C-0.0686672 37.4764 -0.0209997 37.6511 0.214359 37.7132C0.461634 37.7784 0.842974 37.6748 1.02769 37.4971Z" fill="black"/>
<path id="Vector_2" d="M33.6472 6.41775C34.4457 5.77834 35.2501 5.14486 36.0306 4.48473C36.0962 4.42848 36.1706 4.32784 36.1468 4.23311C36.123 4.13838 36.0038 4.08806 35.9204 4.07326C35.6284 4.01997 35.3245 4.12062 35.0951 4.29231C34.2639 4.91692 33.4506 5.56521 32.6343 6.21054C32.5628 6.26678 32.4824 6.38223 32.5092 6.47992C32.536 6.5776 32.6641 6.63681 32.7535 6.65161C33.0603 6.70785 33.403 6.60721 33.6443 6.41479L33.6472 6.41775Z" fill="black"/>
<path id="Vector_3" d="M17.2587 8.79779C23.229 14.3689 29.0623 20.0851 34.9403 25.7539C36.5789 27.3347 38.2205 28.9095 39.8709 30.4785C40.1629 30.7538 41.2473 30.3245 40.9405 30.0315C35.0297 24.407 29.2143 18.6849 23.3124 13.0546C21.659 11.4768 19.9996 9.90788 18.3312 8.3508C18.0363 8.0755 16.9518 8.51065 17.2617 8.79779H17.2587Z" fill="black"/>
<path id="Vector_4" d="M8.38655 0.671964C12.4413 4.57354 16.5168 8.45735 20.6014 12.3323C24.7037 16.222 28.818 20.0999 32.9383 23.9689C35.2442 26.1358 37.5531 28.3027 39.859 30.4666C40.151 30.7419 41.2354 30.3097 40.9286 30.0196C36.8262 26.1743 32.7268 22.326 28.6363 18.4688C24.522 14.5909 20.4166 10.7042 16.3262 6.80554C14.0322 4.61794 11.7412 2.42442 9.45609 0.22793C9.16711 -0.0503305 8.0797 0.378902 8.38655 0.674924V0.671964Z" fill="black"/>
<path id="Vector_5" d="M8.2999 0.574283C9.19366 1.42979 10.0874 2.28825 10.9872 3.13784C11.1719 3.31249 11.5413 3.2444 11.7498 3.14968C11.8779 3.09047 12.2474 2.87438 12.0567 2.69084C11.1629 1.8235 10.2572 0.967992 9.35752 0.106568C9.17281 -0.0680856 8.80339 0.00295973 8.59484 0.0947266C8.46673 0.150971 8.09731 0.370027 8.28798 0.553561C9.19068 1.41203 10.0934 2.26753 10.9872 3.13784L12.0567 2.69084C11.154 1.84126 10.2632 0.982793 9.36944 0.127289C9.18473 -0.0503243 8.8153 0.0236813 8.60676 0.115448C8.47865 0.171692 8.10923 0.390749 8.2999 0.574283Z" fill="black"/>
<path id="Vector_6" d="M39.1887 28.2938C35.2919 24.6498 31.4159 20.9821 27.5459 17.3084C23.6759 13.6348 19.8119 9.9582 15.9359 6.28752C13.7819 4.25089 11.625 2.21426 9.46207 0.183544C9.17011 -0.0917564 8.08567 0.340436 8.39253 0.630538C12.2596 4.25681 16.1057 7.90676 19.9489 11.5567C23.8189 15.2304 27.683 18.9099 31.5619 22.5747C33.7427 24.635 35.9265 26.6923 38.1192 28.7408C38.4141 29.0161 39.4956 28.581 39.1887 28.2938Z" fill="black"/>
<path id="Vector_7" d="M7.90992 1.20778C10.3857 7.22591 12.7482 13.2914 15.0839 19.3658C17.4196 25.4402 19.7285 31.5234 22.1029 37.583C23.4436 41.008 24.8051 44.4241 26.2023 47.8254C26.3662 48.222 27.5013 47.8786 27.3523 47.5175C24.8706 41.4786 22.5021 35.3924 20.1605 29.2973C17.8248 23.223 15.5159 17.1397 13.1414 11.0801C11.8067 7.67587 10.4512 4.28049 9.0599 0.899918C8.89604 0.503248 7.76096 0.846634 7.90992 1.20778Z" fill="black"/>
<path id="Vector_8" d="M0.667424 37.9767C5.8453 36.9436 11.0351 35.9608 16.2279 34.9869C21.3968 34.0159 26.5687 33.0538 31.7317 32.0562C34.6543 31.4938 37.574 30.9166 40.4936 30.3275C40.6634 30.2919 41.0537 30.1173 40.9911 29.8894C40.9256 29.6466 40.4966 29.7236 40.3387 29.7561C35.1787 30.8041 30.0068 31.7928 24.8319 32.7697C19.657 33.7465 14.491 34.7027 9.32503 35.6884C6.38752 36.2479 3.45001 36.8192 0.515484 37.4024C0.345668 37.435 -0.0446093 37.6126 0.0179542 37.8405C0.083497 38.0833 0.512504 38.0063 0.670403 37.9737L0.667424 37.9767Z" fill="black"/>
<path id="Vector_9" d="M35.7896 3.94895C34.6545 9.62665 33.5164 15.3044 32.3486 20.9761C31.1778 26.6716 29.9771 32.3612 28.7199 38.0389C28.0109 41.2389 27.2869 44.4359 26.5391 47.627C26.4408 48.0474 27.5997 47.8757 27.6891 47.4849C29.0119 41.8428 30.2661 36.1828 31.4727 30.514C32.6852 24.8274 33.8561 19.1319 35.0061 13.4335C35.6555 10.2246 36.2961 7.01278 36.9396 3.80389C37.026 3.3717 35.867 3.55524 35.7896 3.94599V3.94895Z" fill="black"/>
<path id="Vector_10" d="M32.8726 7.1282L36.4894 4.01997C36.6711 3.86308 36.6085 3.66474 36.3791 3.61442C36.111 3.55521 35.7714 3.65586 35.5658 3.83051L31.949 6.93875C31.7673 7.09564 31.8299 7.29397 32.0593 7.3443C32.3274 7.4035 32.667 7.30285 32.8726 7.1282Z" fill="black"/>
<path id="Vector_11" d="M28.52 10.9854C31.2758 8.6113 34.0584 6.26976 36.8707 3.96079C37.0644 3.80094 36.981 3.61148 36.7605 3.55524C36.4954 3.48715 36.1527 3.6026 35.9472 3.77134C33.1378 6.08031 30.3522 8.42184 27.5964 10.7959C27.4087 10.9588 27.4832 11.1423 27.7067 11.2015C27.9659 11.2696 28.3204 11.1571 28.52 10.9854Z" fill="black"/>
<path id="Vector_12" d="M29.1961 9.95523L32.3898 7.43608C32.5775 7.28807 32.506 7.07197 32.2796 7.03053C31.9966 6.98021 31.6867 7.07197 31.4663 7.24663L28.2726 9.76578C28.0849 9.91379 28.1564 10.1299 28.3828 10.1713C28.6658 10.2217 28.9757 10.1299 29.1961 9.95523Z" fill="black"/>
<path id="Vector_13" d="M29.6937 9.68289C31.2787 8.33006 32.8725 6.98612 34.4456 5.6185C34.6213 5.46457 34.5618 5.27512 34.3383 5.22479C34.0761 5.16855 33.7514 5.26624 33.5488 5.43497C31.946 6.77595 30.3611 8.13765 28.7702 9.49343C28.5854 9.65032 28.651 9.84866 28.8804 9.89898C29.1485 9.95819 29.4881 9.85754 29.6967 9.68289H29.6937Z" fill="black"/>
<path id="Vector_14" d="M27.7247 11.6426C28.8389 10.6598 29.974 9.70658 31.124 8.76819C31.3087 8.61722 31.2372 8.41889 31.0167 8.37152C30.7456 8.31232 30.4298 8.41593 30.2183 8.58466C29.0504 9.51121 27.9124 10.4703 26.7922 11.4531C26.6104 11.613 26.67 11.8113 26.9024 11.8616C27.1676 11.9208 27.5191 11.8231 27.7217 11.6426H27.7247Z" fill="black"/>
</g>
<defs>
<clipPath id="clip0_6_3974">
<rect width="41" height="48" fill="white"/>
</clipPath>
</defs>
</svg>
