<svg width="56" height="36" viewBox="0 0 56 36" fill="#000" xmlns="http://www.w3.org/2000/svg">
<g id="Frame" clip-path="url(#clip0_6_4004)">
<path id="Vector" d="M16.0601 2.12C16.1101 4.69 16.1101 7.26 16.0601 9.83C16.0601 10.17 16.1301 10.36 16.4501 10.52C16.8001 10.7 17.3401 10.71 17.7201 10.65C18.2201 10.58 18.7501 10.44 19.1801 10.15C19.4401 9.98 19.9101 9.68 19.9101 9.33C19.9701 6.58 19.9701 3.82 19.9101 1.07C19.9101 0.769997 19.3601 0.579997 19.1601 0.539997C18.7101 0.439997 18.1501 0.499997 17.7201 0.619997C17.0101 0.829997 16.0301 1.24 16.0501 2.1L16.0601 2.12Z" fill="#000"/>
<path id="Vector_2" d="M27.4 1.34L27.29 8.9C27.29 9.24 27.36 9.43 27.68 9.59C28.03 9.77 28.57 9.78 28.95 9.72C29.45 9.65 29.98 9.51 30.41 9.22C30.66 9.05 31.14 8.75 31.14 8.4L31.25 0.839998C31.25 0.499998 31.18 0.309998 30.86 0.149998C30.51 -0.0300018 29.97 -0.0400018 29.59 0.0199982C29.09 0.0899982 28.56 0.229998 28.13 0.519998C27.88 0.689998 27.4 0.989998 27.4 1.34Z" fill="#000"/>
<path id="Vector_3" d="M0.180109 24.69C5.46011 30.74 13.1101 34.11 21.0201 34.87C28.9301 35.63 37.7001 33.29 44.7601 29.01C48.8101 26.55 52.4001 23.44 55.5301 19.89C56.2101 19.11 54.9501 18.67 54.3801 18.65C53.3501 18.6 52.2701 19.03 51.5901 19.8C46.8801 25.16 40.7101 29.48 33.8101 31.46C26.9101 33.44 19.9501 32.91 13.5901 30.08C9.92011 28.45 6.67011 26.09 4.02011 23.07C3.08011 22 -0.889891 23.48 0.170109 24.69H0.180109Z" fill="#000"/>
</g>
<defs>
<clipPath id="clip0_6_4004">
<rect width="55.73" height="35.02" fill="#000"/>
</clipPath>
</defs>
</svg>
