<svg width="42" height="54" viewBox="0 0 42 54" fill="#000" xmlns="http://www.w3.org/2000/svg">
<g id="Frame" clip-path="url(#clip0_6_3969)">
<path id="Vector" d="M3.42991 26.73C13.7499 20.89 23.6999 12.64 27.0399 0.80001C27.4299 -0.56999 23.5499 -0.02999 23.1799 1.28001C20.0299 12.42 10.7399 20.09 1.03991 25.59C0.439907 25.93 -0.030093 26.65 0.699907 27.1C1.42991 27.55 2.74991 27.13 3.43991 26.74L3.42991 26.73Z" fill="#000"/>
<path id="Vector_2" d="M23.0698 1.74001C24.5698 12.87 29.1698 24.01 38.1098 31.18C38.7998 31.74 39.9098 31.55 40.6698 31.22C41.0398 31.06 42.3998 30.23 41.6998 29.67C32.8698 22.58 28.4198 11.69 26.9398 0.700014C26.7698 -0.589986 22.8798 0.290014 23.0798 1.74001H23.0698Z" fill="#000"/>
<path id="Vector_3" d="M0.180047 27.1C7.62005 34.21 14.26 42.44 17.38 52.39C17.8 53.74 21.66 52.66 21.24 51.35C18.06 41.25 11.32 32.81 3.76005 25.58C2.78005 24.65 -0.859953 26.1 0.170047 27.09H0.180047V27.1Z" fill="#000"/>
<path id="Vector_4" d="M22.59 52.12C27.29 43.81 33.62 36.55 41.31 30.88C41.99 30.38 41.65 29.69 40.94 29.51C40 29.28 38.95 29.69 38.21 30.24C30.35 36.04 23.8 43.53 18.99 52.03C18.1 53.61 21.96 53.22 22.59 52.11V52.12Z" fill="#000"/>
</g>
<defs>
<clipPath id="clip0_6_3969">
<rect width="41.9" height="53.09" fill="#000"/>
</clipPath>
</defs>
</svg>
