<svg width="55" height="64" viewBox="0 0 55 64" fill="none" xmlns="http://www.w3.org/2000/svg">
<g id="Frame" clip-path="url(#clip0_6_3929)">
<path id="Vector" d="M27.65 1.01999C20.02 10.6 12.49 20.26 4.91 29.88C4.33 30.61 5.41 31.01 5.96 31.02C10.2 31.09 14.31 29.1 18.2 27.62C22.09 26.14 26.13 24.5 30.06 22.83C37.92 19.49 45.55 15.74 53.2 11.96L50.81 10.81C44.12 17.36 37.67 24.18 31.11 30.87C24.55 37.56 17.99 44.24 11.43 50.94C7.73 54.72 4.03 58.5 0.359995 62.32C-0.220004 62.92 -0.100004 63.51 0.739995 63.73C1.58 63.95 2.93 63.6 3.56 62.98C16.81 49.73 29.81 36.24 42.92 22.85C46.62 19.07 50.4 15.34 54.02 11.48C54.51 10.96 54.59 10.41 53.82 10.13C52.97 9.81999 51.92 10.16 51.17 10.56C44.17 14.32 36.89 17.62 29.59 20.76C25.97 22.32 22.32 23.82 18.64 25.25C16.8 25.97 14.96 26.67 13.11 27.36C11.26 28.05 9.44 28.86 7.47 28.83L8.52 29.97C16.06 20.34 23.64 10.76 31.13 1.09999C31.68 0.38999 30.65 0.0299898 30.11 -1.01915e-05C29.24 -0.0500102 28.2 0.32999 27.65 1.01999Z" fill="black"/>
</g>
<defs>
<clipPath id="clip0_6_3929">
<rect width="54.94" height="63.79" fill="white"/>
</clipPath>
</defs>
</svg>
