<svg xmlns="http://www.w3.org/2000/svg" version="1.1" xmlns:xlink="http://www.w3.org/1999/xlink" xmlns:svgjs="http://svgjs.dev/svgjs" width="1440" height="960" preserveAspectRatio="none" viewBox="0 0 1440 960"><g mask="url(&quot;#SvgjsMask1256&quot;)" fill="none"><rect width="1440" height="960" x="0" y="0" fill="rgba(255, 255, 255, 1)"></rect><path d="M53.96 19.16L83.4 36.16L83.4 70.16L53.96 87.16L24.51 70.16L24.51 36.16zM53.96 121.16L83.4 138.16L83.4 172.16L53.96 189.16L24.51 172.16L24.51 138.16zM24.51 274.16L53.96 291.16L53.96 325.16L24.51 342.16L-4.94 325.16L-4.94 291.16zM53.96 325.16L83.4 342.16L83.4 376.16L53.96 393.16L24.51 376.16L24.51 342.16zM24.51 478.16L53.96 495.16L53.96 529.16L24.51 546.16L-4.94 529.16L-4.94 495.16zM53.96 529.16L83.4 546.16L83.4 580.16L53.96 597.16L24.51 580.16L24.51 546.16zM24.51 580.16L53.96 597.16L53.96 631.16L24.51 648.16L-4.94 631.16L-4.94 597.16zM53.96 631.16L83.4 648.16L83.4 682.16L53.96 699.16L24.51 682.16L24.51 648.16zM24.51 682.16L53.96 699.16L53.96 733.16L24.51 750.16L-4.94 733.16L-4.94 699.16zM53.96 733.16L83.4 750.16L83.4 784.16L53.96 801.16L24.51 784.16L24.51 750.16zM24.51 784.16L53.96 801.16L53.96 835.16L24.51 852.16L-4.94 835.16L-4.94 801.16zM53.96 835.16L83.4 852.16L83.4 886.16L53.96 903.16L24.51 886.16L24.51 852.16zM53.96 937.16L83.4 954.16L83.4 988.16L53.96 1005.16L24.51 988.16L24.51 954.16zM83.4 -31.84L112.85 -14.84L112.85 19.16L83.4 36.16L53.96 19.16L53.96 -14.84zM112.85 121.16L142.29 138.16L142.29 172.16L112.85 189.16L83.4 172.16L83.4 138.16zM112.85 223.16L142.29 240.16L142.29 274.16L112.85 291.16L83.4 274.16L83.4 240.16zM112.85 325.16L142.29 342.16L142.29 376.16L112.85 393.16L83.4 376.16L83.4 342.16zM83.4 376.16L112.85 393.16L112.85 427.16L83.4 444.16L53.96 427.16L53.96 393.16zM83.4 478.16L112.85 495.16L112.85 529.16L83.4 546.16L53.96 529.16L53.96 495.16zM112.85 631.16L142.29 648.16L142.29 682.16L112.85 699.16L83.4 682.16L83.4 648.16zM83.4 682.16L112.85 699.16L112.85 733.16L83.4 750.16L53.96 733.16L53.96 699.16zM83.4 784.16L112.85 801.16L112.85 835.16L83.4 852.16L53.96 835.16L53.96 801.16zM142.29 -31.84L171.74 -14.84L171.74 19.16L142.29 36.16L112.85 19.16L112.85 -14.84zM171.74 325.16L201.18 342.16L201.18 376.16L171.74 393.16L142.29 376.16L142.29 342.16zM142.29 376.16L171.74 393.16L171.74 427.16L142.29 444.16L112.85 427.16L112.85 393.16zM142.29 478.16L171.74 495.16L171.74 529.16L142.29 546.16L112.85 529.16L112.85 495.16zM171.74 529.16L201.18 546.16L201.18 580.16L171.74 597.16L142.29 580.16L142.29 546.16zM171.74 631.16L201.18 648.16L201.18 682.16L171.74 699.16L142.29 682.16L142.29 648.16zM142.29 682.16L171.74 699.16L171.74 733.16L142.29 750.16L112.85 733.16L112.85 699.16zM171.74 733.16L201.18 750.16L201.18 784.16L171.74 801.16L142.29 784.16L142.29 750.16zM142.29 784.16L171.74 801.16L171.74 835.16L142.29 852.16L112.85 835.16L112.85 801.16zM171.74 937.16L201.18 954.16L201.18 988.16L171.74 1005.16L142.29 988.16L142.29 954.16zM201.18 -31.84L230.63 -14.84L230.63 19.16L201.18 36.16L171.74 19.16L171.74 -14.84zM201.18 70.16L230.63 87.16L230.63 121.16L201.18 138.16L171.74 121.16L171.74 87.16zM230.63 427.16L260.08 444.16L260.08 478.16L230.63 495.16L201.18 478.16L201.18 444.16zM201.18 580.16L230.63 597.16L230.63 631.16L201.18 648.16L171.74 631.16L171.74 597.16zM230.63 631.16L260.08 648.16L260.08 682.16L230.63 699.16L201.18 682.16L201.18 648.16zM201.18 682.16L230.63 699.16L230.63 733.16L201.18 750.16L171.74 733.16L171.74 699.16zM230.63 835.16L260.08 852.16L260.08 886.16L230.63 903.16L201.18 886.16L201.18 852.16zM201.18 886.16L230.63 903.16L230.63 937.16L201.18 954.16L171.74 937.16L171.74 903.16zM230.63 937.16L260.08 954.16L260.08 988.16L230.63 1005.16L201.18 988.16L201.18 954.16zM260.08 -31.84L289.52 -14.84L289.52 19.16L260.08 36.16L230.63 19.16L230.63 -14.84zM289.52 19.16L318.97 36.16L318.97 70.16L289.52 87.16L260.08 70.16L260.08 36.16zM289.52 121.16L318.97 138.16L318.97 172.16L289.52 189.16L260.08 172.16L260.08 138.16zM260.08 172.16L289.52 189.16L289.52 223.16L260.08 240.16L230.63 223.16L230.63 189.16zM260.08 274.16L289.52 291.16L289.52 325.16L260.08 342.16L230.63 325.16L230.63 291.16zM260.08 478.16L289.52 495.16L289.52 529.16L260.08 546.16L230.63 529.16L230.63 495.16zM289.52 529.16L318.97 546.16L318.97 580.16L289.52 597.16L260.08 580.16L260.08 546.16zM260.08 580.16L289.52 597.16L289.52 631.16L260.08 648.16L230.63 631.16L230.63 597.16zM289.52 733.16L318.97 750.16L318.97 784.16L289.52 801.16L260.08 784.16L260.08 750.16zM289.52 835.16L318.97 852.16L318.97 886.16L289.52 903.16L260.08 886.16L260.08 852.16zM260.08 886.16L289.52 903.16L289.52 937.16L260.08 954.16L230.63 937.16L230.63 903.16zM318.97 172.16L348.41 189.16L348.41 223.16L318.97 240.16L289.52 223.16L289.52 189.16zM348.41 325.16L377.86 342.16L377.86 376.16L348.41 393.16L318.97 376.16L318.97 342.16zM318.97 376.16L348.41 393.16L348.41 427.16L318.97 444.16L289.52 427.16L289.52 393.16zM348.41 529.16L377.86 546.16L377.86 580.16L348.41 597.16L318.97 580.16L318.97 546.16zM318.97 580.16L348.41 597.16L348.41 631.16L318.97 648.16L289.52 631.16L289.52 597.16zM318.97 682.16L348.41 699.16L348.41 733.16L318.97 750.16L289.52 733.16L289.52 699.16zM348.41 733.16L377.86 750.16L377.86 784.16L348.41 801.16L318.97 784.16L318.97 750.16zM318.97 784.16L348.41 801.16L348.41 835.16L318.97 852.16L289.52 835.16L289.52 801.16zM318.97 886.16L348.41 903.16L348.41 937.16L318.97 954.16L289.52 937.16L289.52 903.16zM348.41 937.16L377.86 954.16L377.86 988.16L348.41 1005.16L318.97 988.16L318.97 954.16zM377.86 -31.84L407.3 -14.84L407.3 19.16L377.86 36.16L348.41 19.16L348.41 -14.84zM407.3 19.16L436.75 36.16L436.75 70.16L407.3 87.16L377.86 70.16L377.86 36.16zM377.86 70.16L407.3 87.16L407.3 121.16L377.86 138.16L348.41 121.16L348.41 87.16zM377.86 172.16L407.3 189.16L407.3 223.16L377.86 240.16L348.41 223.16L348.41 189.16zM407.3 325.16L436.75 342.16L436.75 376.16L407.3 393.16L377.86 376.16L377.86 342.16zM377.86 376.16L407.3 393.16L407.3 427.16L377.86 444.16L348.41 427.16L348.41 393.16zM377.86 478.16L407.3 495.16L407.3 529.16L377.86 546.16L348.41 529.16L348.41 495.16zM407.3 529.16L436.75 546.16L436.75 580.16L407.3 597.16L377.86 580.16L377.86 546.16zM377.86 682.16L407.3 699.16L407.3 733.16L377.86 750.16L348.41 733.16L348.41 699.16zM407.3 733.16L436.75 750.16L436.75 784.16L407.3 801.16L377.86 784.16L377.86 750.16zM377.86 784.16L407.3 801.16L407.3 835.16L377.86 852.16L348.41 835.16L348.41 801.16zM407.3 835.16L436.75 852.16L436.75 886.16L407.3 903.16L377.86 886.16L377.86 852.16zM377.86 886.16L407.3 903.16L407.3 937.16L377.86 954.16L348.41 937.16L348.41 903.16zM407.3 937.16L436.75 954.16L436.75 988.16L407.3 1005.16L377.86 988.16L377.86 954.16zM466.2 19.16L495.64 36.16L495.64 70.16L466.2 87.16L436.75 70.16L436.75 36.16zM436.75 70.16L466.2 87.16L466.2 121.16L436.75 138.16L407.3 121.16L407.3 87.16zM436.75 376.16L466.2 393.16L466.2 427.16L436.75 444.16L407.3 427.16L407.3 393.16zM466.2 427.16L495.64 444.16L495.64 478.16L466.2 495.16L436.75 478.16L436.75 444.16zM436.75 478.16L466.2 495.16L466.2 529.16L436.75 546.16L407.3 529.16L407.3 495.16zM466.2 529.16L495.64 546.16L495.64 580.16L466.2 597.16L436.75 580.16L436.75 546.16zM436.75 580.16L466.2 597.16L466.2 631.16L436.75 648.16L407.3 631.16L407.3 597.16zM466.2 631.16L495.64 648.16L495.64 682.16L466.2 699.16L436.75 682.16L436.75 648.16zM466.2 733.16L495.64 750.16L495.64 784.16L466.2 801.16L436.75 784.16L436.75 750.16zM436.75 886.16L466.2 903.16L466.2 937.16L436.75 954.16L407.3 937.16L407.3 903.16zM466.2 937.16L495.64 954.16L495.64 988.16L466.2 1005.16L436.75 988.16L436.75 954.16zM525.09 121.16L554.53 138.16L554.53 172.16L525.09 189.16L495.64 172.16L495.64 138.16zM495.64 172.16L525.09 189.16L525.09 223.16L495.64 240.16L466.2 223.16L466.2 189.16zM525.09 223.16L554.53 240.16L554.53 274.16L525.09 291.16L495.64 274.16L495.64 240.16zM495.64 274.16L525.09 291.16L525.09 325.16L495.64 342.16L466.2 325.16L466.2 291.16zM495.64 376.16L525.09 393.16L525.09 427.16L495.64 444.16L466.2 427.16L466.2 393.16zM495.64 478.16L525.09 495.16L525.09 529.16L495.64 546.16L466.2 529.16L466.2 495.16zM525.09 529.16L554.53 546.16L554.53 580.16L525.09 597.16L495.64 580.16L495.64 546.16zM525.09 631.16L554.53 648.16L554.53 682.16L525.09 699.16L495.64 682.16L495.64 648.16zM495.64 784.16L525.09 801.16L525.09 835.16L495.64 852.16L466.2 835.16L466.2 801.16zM525.09 835.16L554.53 852.16L554.53 886.16L525.09 903.16L495.64 886.16L495.64 852.16zM495.64 886.16L525.09 903.16L525.09 937.16L495.64 954.16L466.2 937.16L466.2 903.16zM525.09 937.16L554.53 954.16L554.53 988.16L525.09 1005.16L495.64 988.16L495.64 954.16zM554.53 -31.84L583.98 -14.84L583.98 19.16L554.53 36.16L525.09 19.16L525.09 -14.84zM583.98 19.16L613.42 36.16L613.42 70.16L583.98 87.16L554.53 70.16L554.53 36.16zM554.53 172.16L583.98 189.16L583.98 223.16L554.53 240.16L525.09 223.16L525.09 189.16zM583.98 325.16L613.42 342.16L613.42 376.16L583.98 393.16L554.53 376.16L554.53 342.16zM583.98 427.16L613.42 444.16L613.42 478.16L583.98 495.16L554.53 478.16L554.53 444.16zM554.53 478.16L583.98 495.16L583.98 529.16L554.53 546.16L525.09 529.16L525.09 495.16zM554.53 580.16L583.98 597.16L583.98 631.16L554.53 648.16L525.09 631.16L525.09 597.16zM554.53 682.16L583.98 699.16L583.98 733.16L554.53 750.16L525.09 733.16L525.09 699.16zM583.98 733.16L613.42 750.16L613.42 784.16L583.98 801.16L554.53 784.16L554.53 750.16zM583.98 835.16L613.42 852.16L613.42 886.16L583.98 903.16L554.53 886.16L554.53 852.16zM583.98 937.16L613.42 954.16L613.42 988.16L583.98 1005.16L554.53 988.16L554.53 954.16zM613.42 70.16L642.87 87.16L642.87 121.16L613.42 138.16L583.98 121.16L583.98 87.16zM613.42 172.16L642.87 189.16L642.87 223.16L613.42 240.16L583.98 223.16L583.98 189.16zM642.87 223.16L672.32 240.16L672.32 274.16L642.87 291.16L613.42 274.16L613.42 240.16zM613.42 274.16L642.87 291.16L642.87 325.16L613.42 342.16L583.98 325.16L583.98 291.16zM642.87 325.16L672.32 342.16L672.32 376.16L642.87 393.16L613.42 376.16L613.42 342.16zM613.42 376.16L642.87 393.16L642.87 427.16L613.42 444.16L583.98 427.16L583.98 393.16zM642.87 631.16L672.32 648.16L672.32 682.16L642.87 699.16L613.42 682.16L613.42 648.16zM642.87 733.16L672.32 750.16L672.32 784.16L642.87 801.16L613.42 784.16L613.42 750.16zM642.87 835.16L672.32 852.16L672.32 886.16L642.87 903.16L613.42 886.16L613.42 852.16zM613.42 886.16L642.87 903.16L642.87 937.16L613.42 954.16L583.98 937.16L583.98 903.16zM642.87 937.16L672.32 954.16L672.32 988.16L642.87 1005.16L613.42 988.16L613.42 954.16zM672.32 -31.84L701.76 -14.84L701.76 19.16L672.32 36.16L642.87 19.16L642.87 -14.84zM701.76 19.16L731.21 36.16L731.21 70.16L701.76 87.16L672.32 70.16L672.32 36.16zM701.76 223.16L731.21 240.16L731.21 274.16L701.76 291.16L672.32 274.16L672.32 240.16zM701.76 325.16L731.21 342.16L731.21 376.16L701.76 393.16L672.32 376.16L672.32 342.16zM672.32 376.16L701.76 393.16L701.76 427.16L672.32 444.16L642.87 427.16L642.87 393.16zM701.76 427.16L731.21 444.16L731.21 478.16L701.76 495.16L672.32 478.16L672.32 444.16zM672.32 478.16L701.76 495.16L701.76 529.16L672.32 546.16L642.87 529.16L642.87 495.16zM701.76 529.16L731.21 546.16L731.21 580.16L701.76 597.16L672.32 580.16L672.32 546.16zM672.32 580.16L701.76 597.16L701.76 631.16L672.32 648.16L642.87 631.16L642.87 597.16zM701.76 631.16L731.21 648.16L731.21 682.16L701.76 699.16L672.32 682.16L672.32 648.16zM672.32 682.16L701.76 699.16L701.76 733.16L672.32 750.16L642.87 733.16L642.87 699.16zM701.76 733.16L731.21 750.16L731.21 784.16L701.76 801.16L672.32 784.16L672.32 750.16zM672.32 784.16L701.76 801.16L701.76 835.16L672.32 852.16L642.87 835.16L642.87 801.16zM760.65 19.16L790.1 36.16L790.1 70.16L760.65 87.16L731.21 70.16L731.21 36.16zM760.65 121.16L790.1 138.16L790.1 172.16L760.65 189.16L731.21 172.16L731.21 138.16zM760.65 223.16L790.1 240.16L790.1 274.16L760.65 291.16L731.21 274.16L731.21 240.16zM731.21 274.16L760.65 291.16L760.65 325.16L731.21 342.16L701.76 325.16L701.76 291.16zM760.65 427.16L790.1 444.16L790.1 478.16L760.65 495.16L731.21 478.16L731.21 444.16zM731.21 478.16L760.65 495.16L760.65 529.16L731.21 546.16L701.76 529.16L701.76 495.16zM731.21 580.16L760.65 597.16L760.65 631.16L731.21 648.16L701.76 631.16L701.76 597.16zM760.65 631.16L790.1 648.16L790.1 682.16L760.65 699.16L731.21 682.16L731.21 648.16zM731.21 784.16L760.65 801.16L760.65 835.16L731.21 852.16L701.76 835.16L701.76 801.16zM760.65 835.16L790.1 852.16L790.1 886.16L760.65 903.16L731.21 886.16L731.21 852.16zM731.21 886.16L760.65 903.16L760.65 937.16L731.21 954.16L701.76 937.16L701.76 903.16zM819.54 19.16L848.99 36.16L848.99 70.16L819.54 87.16L790.1 70.16L790.1 36.16zM819.54 223.16L848.99 240.16L848.99 274.16L819.54 291.16L790.1 274.16L790.1 240.16zM790.1 376.16L819.54 393.16L819.54 427.16L790.1 444.16L760.65 427.16L760.65 393.16zM819.54 427.16L848.99 444.16L848.99 478.16L819.54 495.16L790.1 478.16L790.1 444.16zM790.1 478.16L819.54 495.16L819.54 529.16L790.1 546.16L760.65 529.16L760.65 495.16zM819.54 529.16L848.99 546.16L848.99 580.16L819.54 597.16L790.1 580.16L790.1 546.16zM790.1 580.16L819.54 597.16L819.54 631.16L790.1 648.16L760.65 631.16L760.65 597.16zM819.54 631.16L848.99 648.16L848.99 682.16L819.54 699.16L790.1 682.16L790.1 648.16zM790.1 682.16L819.54 699.16L819.54 733.16L790.1 750.16L760.65 733.16L760.65 699.16zM819.54 835.16L848.99 852.16L848.99 886.16L819.54 903.16L790.1 886.16L790.1 852.16zM790.1 886.16L819.54 903.16L819.54 937.16L790.1 954.16L760.65 937.16L760.65 903.16zM848.99 -31.84L878.44 -14.84L878.44 19.16L848.99 36.16L819.54 19.16L819.54 -14.84zM878.44 19.16L907.88 36.16L907.88 70.16L878.44 87.16L848.99 70.16L848.99 36.16zM848.99 172.16L878.44 189.16L878.44 223.16L848.99 240.16L819.54 223.16L819.54 189.16zM878.44 223.16L907.88 240.16L907.88 274.16L878.44 291.16L848.99 274.16L848.99 240.16zM848.99 274.16L878.44 291.16L878.44 325.16L848.99 342.16L819.54 325.16L819.54 291.16zM878.44 529.16L907.88 546.16L907.88 580.16L878.44 597.16L848.99 580.16L848.99 546.16zM878.44 631.16L907.88 648.16L907.88 682.16L878.44 699.16L848.99 682.16L848.99 648.16zM878.44 937.16L907.88 954.16L907.88 988.16L878.44 1005.16L848.99 988.16L848.99 954.16zM907.88 -31.84L937.33 -14.84L937.33 19.16L907.88 36.16L878.44 19.16L878.44 -14.84zM937.33 19.16L966.77 36.16L966.77 70.16L937.33 87.16L907.88 70.16L907.88 36.16zM907.88 376.16L937.33 393.16L937.33 427.16L907.88 444.16L878.44 427.16L878.44 393.16zM937.33 427.16L966.77 444.16L966.77 478.16L937.33 495.16L907.88 478.16L907.88 444.16zM907.88 580.16L937.33 597.16L937.33 631.16L907.88 648.16L878.44 631.16L878.44 597.16zM937.33 733.16L966.77 750.16L966.77 784.16L937.33 801.16L907.88 784.16L907.88 750.16zM937.33 937.16L966.77 954.16L966.77 988.16L937.33 1005.16L907.88 988.16L907.88 954.16zM966.77 -31.84L996.22 -14.84L996.22 19.16L966.77 36.16L937.33 19.16L937.33 -14.84zM996.22 121.16L1025.66 138.16L1025.66 172.16L996.22 189.16L966.77 172.16L966.77 138.16zM966.77 172.16L996.22 189.16L996.22 223.16L966.77 240.16L937.33 223.16L937.33 189.16zM996.22 223.16L1025.66 240.16L1025.66 274.16L996.22 291.16L966.77 274.16L966.77 240.16zM966.77 478.16L996.22 495.16L996.22 529.16L966.77 546.16L937.33 529.16L937.33 495.16zM966.77 784.16L996.22 801.16L996.22 835.16L966.77 852.16L937.33 835.16L937.33 801.16zM966.77 886.16L996.22 903.16L996.22 937.16L966.77 954.16L937.33 937.16L937.33 903.16zM1055.11 19.16L1084.56 36.16L1084.56 70.16L1055.11 87.16L1025.66 70.16L1025.66 36.16zM1025.66 172.16L1055.11 189.16L1055.11 223.16L1025.66 240.16L996.22 223.16L996.22 189.16zM1055.11 223.16L1084.56 240.16L1084.56 274.16L1055.11 291.16L1025.66 274.16L1025.66 240.16zM1055.11 325.16L1084.56 342.16L1084.56 376.16L1055.11 393.16L1025.66 376.16L1025.66 342.16zM1025.66 376.16L1055.11 393.16L1055.11 427.16L1025.66 444.16L996.22 427.16L996.22 393.16zM1025.66 478.16L1055.11 495.16L1055.11 529.16L1025.66 546.16L996.22 529.16L996.22 495.16zM1055.11 529.16L1084.56 546.16L1084.56 580.16L1055.11 597.16L1025.66 580.16L1025.66 546.16zM1025.66 784.16L1055.11 801.16L1055.11 835.16L1025.66 852.16L996.22 835.16L996.22 801.16zM1055.11 835.16L1084.56 852.16L1084.56 886.16L1055.11 903.16L1025.66 886.16L1025.66 852.16zM1025.66 886.16L1055.11 903.16L1055.11 937.16L1025.66 954.16L996.22 937.16L996.22 903.16zM1084.56 -31.84L1114 -14.84L1114 19.16L1084.56 36.16L1055.11 19.16L1055.11 -14.84zM1084.56 70.16L1114 87.16L1114 121.16L1084.56 138.16L1055.11 121.16L1055.11 87.16zM1114 121.16L1143.45 138.16L1143.45 172.16L1114 189.16L1084.56 172.16L1084.56 138.16zM1084.56 274.16L1114 291.16L1114 325.16L1084.56 342.16L1055.11 325.16L1055.11 291.16zM1114 427.16L1143.45 444.16L1143.45 478.16L1114 495.16L1084.56 478.16L1084.56 444.16zM1084.56 478.16L1114 495.16L1114 529.16L1084.56 546.16L1055.11 529.16L1055.11 495.16zM1114 835.16L1143.45 852.16L1143.45 886.16L1114 903.16L1084.56 886.16L1084.56 852.16zM1084.56 886.16L1114 903.16L1114 937.16L1084.56 954.16L1055.11 937.16L1055.11 903.16zM1114 937.16L1143.45 954.16L1143.45 988.16L1114 1005.16L1084.56 988.16L1084.56 954.16zM1172.89 19.16L1202.34 36.16L1202.34 70.16L1172.89 87.16L1143.45 70.16L1143.45 36.16zM1172.89 121.16L1202.34 138.16L1202.34 172.16L1172.89 189.16L1143.45 172.16L1143.45 138.16zM1143.45 172.16L1172.89 189.16L1172.89 223.16L1143.45 240.16L1114 223.16L1114 189.16zM1143.45 274.16L1172.89 291.16L1172.89 325.16L1143.45 342.16L1114 325.16L1114 291.16zM1143.45 478.16L1172.89 495.16L1172.89 529.16L1143.45 546.16L1114 529.16L1114 495.16zM1172.89 529.16L1202.34 546.16L1202.34 580.16L1172.89 597.16L1143.45 580.16L1143.45 546.16zM1143.45 580.16L1172.89 597.16L1172.89 631.16L1143.45 648.16L1114 631.16L1114 597.16zM1172.89 733.16L1202.34 750.16L1202.34 784.16L1172.89 801.16L1143.45 784.16L1143.45 750.16zM1143.45 784.16L1172.89 801.16L1172.89 835.16L1143.45 852.16L1114 835.16L1114 801.16zM1172.89 835.16L1202.34 852.16L1202.34 886.16L1172.89 903.16L1143.45 886.16L1143.45 852.16zM1172.89 937.16L1202.34 954.16L1202.34 988.16L1172.89 1005.16L1143.45 988.16L1143.45 954.16zM1202.34 -31.84L1231.78 -14.84L1231.78 19.16L1202.34 36.16L1172.89 19.16L1172.89 -14.84zM1231.78 19.16L1261.23 36.16L1261.23 70.16L1231.78 87.16L1202.34 70.16L1202.34 36.16zM1231.78 121.16L1261.23 138.16L1261.23 172.16L1231.78 189.16L1202.34 172.16L1202.34 138.16zM1202.34 172.16L1231.78 189.16L1231.78 223.16L1202.34 240.16L1172.89 223.16L1172.89 189.16zM1231.78 223.16L1261.23 240.16L1261.23 274.16L1231.78 291.16L1202.34 274.16L1202.34 240.16zM1202.34 274.16L1231.78 291.16L1231.78 325.16L1202.34 342.16L1172.89 325.16L1172.89 291.16zM1231.78 325.16L1261.23 342.16L1261.23 376.16L1231.78 393.16L1202.34 376.16L1202.34 342.16zM1202.34 376.16L1231.78 393.16L1231.78 427.16L1202.34 444.16L1172.89 427.16L1172.89 393.16zM1202.34 478.16L1231.78 495.16L1231.78 529.16L1202.34 546.16L1172.89 529.16L1172.89 495.16zM1231.78 529.16L1261.23 546.16L1261.23 580.16L1231.78 597.16L1202.34 580.16L1202.34 546.16zM1202.34 580.16L1231.78 597.16L1231.78 631.16L1202.34 648.16L1172.89 631.16L1172.89 597.16zM1231.78 733.16L1261.23 750.16L1261.23 784.16L1231.78 801.16L1202.34 784.16L1202.34 750.16zM1202.34 784.16L1231.78 801.16L1231.78 835.16L1202.34 852.16L1172.89 835.16L1172.89 801.16zM1231.78 835.16L1261.23 852.16L1261.23 886.16L1231.78 903.16L1202.34 886.16L1202.34 852.16zM1202.34 886.16L1231.78 903.16L1231.78 937.16L1202.34 954.16L1172.89 937.16L1172.89 903.16zM1231.78 937.16L1261.23 954.16L1261.23 988.16L1231.78 1005.16L1202.34 988.16L1202.34 954.16zM1261.23 -31.84L1290.68 -14.84L1290.68 19.16L1261.23 36.16L1231.78 19.16L1231.78 -14.84zM1261.23 70.16L1290.68 87.16L1290.68 121.16L1261.23 138.16L1231.78 121.16L1231.78 87.16zM1290.68 121.16L1320.12 138.16L1320.12 172.16L1290.68 189.16L1261.23 172.16L1261.23 138.16zM1261.23 274.16L1290.68 291.16L1290.68 325.16L1261.23 342.16L1231.78 325.16L1231.78 291.16zM1261.23 580.16L1290.68 597.16L1290.68 631.16L1261.23 648.16L1231.78 631.16L1231.78 597.16zM1261.23 784.16L1290.68 801.16L1290.68 835.16L1261.23 852.16L1231.78 835.16L1231.78 801.16zM1290.68 835.16L1320.12 852.16L1320.12 886.16L1290.68 903.16L1261.23 886.16L1261.23 852.16zM1349.57 325.16L1379.01 342.16L1379.01 376.16L1349.57 393.16L1320.12 376.16L1320.12 342.16zM1320.12 478.16L1349.57 495.16L1349.57 529.16L1320.12 546.16L1290.68 529.16L1290.68 495.16zM1320.12 682.16L1349.57 699.16L1349.57 733.16L1320.12 750.16L1290.68 733.16L1290.68 699.16zM1320.12 886.16L1349.57 903.16L1349.57 937.16L1320.12 954.16L1290.68 937.16L1290.68 903.16zM1349.57 937.16L1379.01 954.16L1379.01 988.16L1349.57 1005.16L1320.12 988.16L1320.12 954.16zM1379.01 -31.84L1408.46 -14.84L1408.46 19.16L1379.01 36.16L1349.57 19.16L1349.57 -14.84zM1379.01 172.16L1408.46 189.16L1408.46 223.16L1379.01 240.16L1349.57 223.16L1349.57 189.16zM1379.01 376.16L1408.46 393.16L1408.46 427.16L1379.01 444.16L1349.57 427.16L1349.57 393.16zM1408.46 427.16L1437.9 444.16L1437.9 478.16L1408.46 495.16L1379.01 478.16L1379.01 444.16zM1379.01 478.16L1408.46 495.16L1408.46 529.16L1379.01 546.16L1349.57 529.16L1349.57 495.16zM1408.46 529.16L1437.9 546.16L1437.9 580.16L1408.46 597.16L1379.01 580.16L1379.01 546.16zM1379.01 580.16L1408.46 597.16L1408.46 631.16L1379.01 648.16L1349.57 631.16L1349.57 597.16zM1408.46 631.16L1437.9 648.16L1437.9 682.16L1408.46 699.16L1379.01 682.16L1379.01 648.16zM1467.35 427.16L1496.79 444.16L1496.79 478.16L1467.35 495.16L1437.9 478.16L1437.9 444.16zM1467.35 529.16L1496.79 546.16L1496.79 580.16L1467.35 597.16L1437.9 580.16L1437.9 546.16zM1437.9 580.16L1467.35 597.16L1467.35 631.16L1437.9 648.16L1408.46 631.16L1408.46 597.16zM1467.35 631.16L1496.79 648.16L1496.79 682.16L1467.35 699.16L1437.9 682.16L1437.9 648.16zM1467.35 937.16L1496.79 954.16L1496.79 988.16L1467.35 1005.16L1437.9 988.16L1437.9 954.16z" stroke="rgba(0, 0, 0, 0.54)" stroke-width="2"></path></g><defs><mask id="SvgjsMask1256"><rect width="1440" height="960" fill="#ffffff"></rect></mask></defs></svg>